<?xml version="1.0" standalone="no"?>
<!DOCTYPE svg PUBLIC "-//W3C//DTD SVG 20010904//EN"
 "http://www.w3.org/TR/2001/REC-SVG-20010904/DTD/svg10.dtd">
<svg version="1.0" xmlns="http://www.w3.org/2000/svg"
 width="128.000000pt" height="128.000000pt" viewBox="0 0 128.000000 128.000000"
 preserveAspectRatio="xMidYMid meet">

<g transform="translate(0.000000,128.000000) scale(0.100000,-0.100000)"
fill="#000000" stroke="none">
<path d="M430 1075 c0 -33 -2 -35 -35 -35 -33 0 -35 -2 -35 -35 0 -34 -1 -35
-40 -35 l-40 0 0 -145 0 -145 -35 0 c-33 0 -35 -2 -35 -35 0 -33 2 -35 35 -35
33 0 35 -2 35 -35 0 -33 -2 -35 -35 -35 -33 0 -35 -2 -35 -35 0 -33 2 -35 35
-35 l35 0 0 -75 0 -75 40 0 c39 0 40 -1 40 -35 l0 -35 70 0 70 0 0 -35 0 -35
140 0 140 0 0 35 0 35 70 0 70 0 0 35 c0 34 1 35 40 35 l40 0 0 75 0 75 35 0
c33 0 35 2 35 35 0 33 -2 35 -35 35 -33 0 -35 2 -35 35 0 33 2 35 35 35 33 0
35 2 35 35 0 33 -2 35 -35 35 l-35 0 0 145 0 145 -40 0 c-39 0 -40 1 -40 35 0
33 -2 35 -35 35 -33 0 -35 2 -35 35 l0 35 -70 0 -70 0 0 -70 0 -70 -70 0 -70
0 0 70 0 70 -70 0 -70 0 0 -35z m70 -180 l0 -75 140 0 140 0 0 75 0 75 35 0
35 0 0 -75 0 -75 -35 0 c-33 0 -35 -2 -35 -35 l0 -35 70 0 70 0 0 -35 c0 -34
1 -35 40 -35 39 0 40 -1 40 -35 0 -34 -1 -35 -40 -35 -39 0 -40 -1 -40 -35 0
-34 1 -35 40 -35 39 0 40 -1 40 -35 0 -34 -1 -35 -40 -35 -39 0 -40 -1 -40
-35 l0 -35 -70 0 -70 0 0 -75 0 -75 -140 0 -140 0 0 75 0 75 -70 0 -70 0 0 35
c0 34 -1 35 -40 35 -39 0 -40 1 -40 35 0 34 1 35 40 35 39 0 40 1 40 35 0 34
-1 35 -40 35 -39 0 -40 1 -40 35 0 34 1 35 40 35 39 0 40 1 40 35 l0 35 70 0
70 0 0 35 c0 33 -2 35 -35 35 l-35 0 0 75 0 75 35 0 35 0 0 -75z"/>
<path d="M430 540 l0 -70 35 0 35 0 0 70 0 70 -35 0 -35 0 0 -70z"/>
<path d="M780 540 l0 -70 35 0 35 0 0 70 0 70 -35 0 -35 0 0 -70z"/>
<path d="M570 505 l0 -35 70 0 70 0 0 35 0 35 -70 0 -70 0 0 -35z"/>
<path d="M570 360 l0 -40 70 0 70 0 0 40 0 40 -70 0 -70 0 0 -40z"/>
<path d="M0 360 l0 -250 35 0 c33 0 35 -2 35 -35 l0 -35 570 0 570 0 0 35 c0
33 2 35 35 35 l35 0 0 250 0 250 -35 0 -35 0 0 -250 0 -250 -570 0 -570 0 0
250 0 250 -35 0 -35 0 0 -250z"/>
<path d="M140 215 c0 -33 2 -35 35 -35 33 0 35 2 35 35 0 33 -2 35 -35 35 -33
0 -35 -2 -35 -35z"/>
<path d="M1070 215 c0 -33 2 -35 35 -35 33 0 35 2 35 35 0 33 -2 35 -35 35
-33 0 -35 -2 -35 -35z"/>
</g>
</svg>
